# xmcd
#
# Track frame offsets:
#	150
#	15828
#	31001
#	48082
#	65041
#	80112
#	96270
#	113625
#	129066
#	142401
#	155951
#	169460
#
# Disc length: 2508 seconds
#
# Revision: 1
# Processed by: cddbd v1.5.2PL0 Copyright (c) Steve Scherf et al.
# Submitted via: audiograbber 1.83.01
#
DISCID=9f09ca0c
DTITLE=RaeLynn - WildHorse
DYEAR=2017
DGENRE=Country
TTITLE0=Your Heart
TTITLE1=WildHorse
TTITLE2=Love Triangle
TTITLE3=Lonely Call
TTITLE4=Insecure
TTITLE5=That Apple
TTITLE6=Young (feat. Leeland Mooring)
TTITLE7=Diamonds
TTITLE8=Trigger
TTITLE9=Graveyard
TTITLE10=Say (feat. Dan and Shay)
TTITLE11=Praying for Rain
EXTD=
EXTT0=
EXTT1=
EXTT2=
EXTT3=
EXTT4=
EXTT5=
EXTT6=
EXTT7=
EXTT8=
EXTT9=
EXTT10=
EXTT11=
PLAYORDER=
